<svg width="18" height="18" viewBox="0 0 23.04 23.04" xmlns="http://www.w3.org/2000/svg">
   <path
      d="m21.6 2.157 -5.765 0V0.723c0 -0.398 -0.322 -0.72 -0.72 -0.72s-0.72 0.322 -0.72 0.72v1.435h-5.76v-1.435c0 -0.398 -0.322 -0.72 -0.72 -0.72s-0.72 0.322 -0.72 0.72v1.435H1.44c-0.795 0 -1.44 0.645 -1.44 1.44v18c0 0.795 0.645 1.44 1.44 1.44h20.16c0.795 0 1.44 -0.645 1.44 -1.44v-18c0 -0.795 -0.645 -1.44 -1.44 -1.44zm0 19.44H1.44v-18h5.755v0.725c0 0.398 0.322 0.72 0.72 0.72s0.72 -0.322 0.72 -0.72v-0.725h5.76v0.725c0 0.398 0.322 0.72 0.72 0.72s0.72 -0.322 0.72 -0.72v-0.725H21.6v18zM16.56 11.517h1.44c0.397 0 0.72 -0.323 0.72 -0.72v-1.44c0 -0.397 -0.323 -0.72 -0.72 -0.72h-1.44c-0.397 0 -0.72 0.323 -0.72 0.72v1.44c0 0.397 0.323 0.72 0.72 0.72zm0 5.76h1.44c0.397 0 0.72 -0.322 0.72 -0.72v-1.44c0 -0.397 -0.323 -0.72 -0.72 -0.72h-1.44c-0.397 0 -0.72 0.323 -0.72 0.72v1.44c0 0.398 0.323 0.72 0.72 0.72zm-4.32 -2.88h-1.44c-0.397 0 -0.72 0.323 -0.72 0.72v1.44c0 0.398 0.323 0.72 0.72 0.72h1.44c0.397 0 0.72 -0.322 0.72 -0.72v-1.44c0 -0.397 -0.323 -0.72 -0.72 -0.72zm0 -5.76h-1.44c-0.397 0 -0.72 0.323 -0.72 0.72v1.44c0 0.397 0.323 0.72 0.72 0.72h1.44c0.397 0 0.72 -0.323 0.72 -0.72v-1.44c0 -0.398 -0.323 -0.72 -0.72 -0.72zm-5.76 0h-1.44c-0.397 0 -0.72 0.323 -0.72 0.72v1.44c0 0.397 0.323 0.72 0.72 0.72h1.44c0.397 0 0.72 -0.323 0.72 -0.72v-1.44c0 -0.398 -0.323 -0.72 -0.72 -0.72zm0 5.76h-1.44c-0.397 0 -0.72 0.323 -0.72 0.72v1.44c0 0.398 0.323 0.72 0.72 0.72h1.44c0.397 0 0.72 -0.322 0.72 -0.72v-1.44c0 -0.397 -0.323 -0.72 -0.72 -0.72z"
      fill="#CCFF00" />
</svg>