<svg xmlns="http://www.w3.org/2000/svg" width="24" height="24" viewBox="0 0 0.96 0.96" xml:space="preserve">
    <path cx="16" cy="16" r="2" style="fill:#CCFF00"
        d="M0.54 0.48A0.06 0.06 0 0 1 0.48 0.54A0.06 0.06 0 0 1 0.42 0.48A0.06 0.06 0 0 1 0.54 0.48z" />
    <path
        d="M0.48 0.24C0.281 0.24 0.12 0.42 0.12 0.48c0 0.09 0.161 0.24 0.36 0.24s0.36 -0.18 0.36 -0.24 -0.161 -0.24 -0.36 -0.24zm0 0.375a0.135 0.135 0 1 1 0 -0.27 0.135 0.135 0 0 1 0 0.27z"
        style="fill:#CCFF00" />
</svg>