<svg width="24" height="24" viewBox="0 0 24 24" fill="none" xmlns="http://www.w3.org/2000/svg">
   <path
      d="M17.8333 20L12.5833 14.75C12.1667 15.0833 11.6875 15.3472 11.1458 15.5417C10.6042 15.7361 10.0278 15.8333 9.41667 15.8333C7.90278 15.8333 6.62167 15.3089 5.57333 14.26C4.525 13.2111 4.00056 11.93 4 10.4167C4 8.90278 4.52444 7.62167 5.57333 6.57333C6.62222 5.525 7.90333 5.00056 9.41667 5C10.9306 5 12.2117 5.52444 13.26 6.57333C14.3083 7.62222 14.8328 8.90333 14.8333 10.4167C14.8333 11.0278 14.7361 11.6042 14.5417 12.1458C14.3472 12.6875 14.0833 13.1667 13.75 13.5833L19 18.8333L17.8333 20ZM9.41667 14.1667C10.4583 14.1667 11.3439 13.8019 12.0733 13.0725C12.8028 12.3431 13.1672 11.4578 13.1667 10.4167C13.1667 9.375 12.8019 8.48944 12.0725 7.76C11.3431 7.03056 10.4578 6.66611 9.41667 6.66667C8.375 6.66667 7.48944 7.03139 6.76 7.76083C6.03056 8.49028 5.66611 9.37556 5.66667 10.4167C5.66667 11.4583 6.03139 12.3439 6.76083 13.0733C7.49028 13.8028 8.37556 14.1672 9.41667 14.1667Z"
      fill="#CCFF00" />
</svg>